<?xml version="1.0" standalone="no"?>
<!DOCTYPE svg PUBLIC "-//W3C//DTD SVG 20010904//EN"
 "http://www.w3.org/TR/2001/REC-SVG-20010904/DTD/svg10.dtd">
<svg version="1.0" xmlns="http://www.w3.org/2000/svg"
 width="927.000000pt" height="303.000000pt" viewBox="0 0 927.000000 303.000000"
 preserveAspectRatio="xMidYMid meet">

<g transform="translate(0.000000,303.000000) scale(0.100000,-0.100000)"
stroke="none">
<path d="M8150 2734 c-116 -31 -124 -44 -99 -151 15 -62 35 -73 82 -45 40 24
130 37 158 22 13 -7 19 -19 17 -33 -2 -18 -13 -24 -55 -31 l-53 -10 0 -68 0
-68 34 0 c62 0 86 -15 86 -55 0 -29 -4 -36 -26 -41 -43 -11 -162 5 -206 27
-22 11 -42 18 -44 16 -3 -3 -7 -43 -10 -89 -3 -64 -1 -88 9 -96 32 -27 139
-44 252 -40 108 3 116 5 157 33 110 78 120 231 20 304 l-27 19 38 34 c29 25
40 43 44 73 7 52 -11 116 -42 153 -47 56 -212 79 -335 46z"/>
<path d="M8575 2745 c-6 -3 -9 -33 -7 -70 3 -53 7 -65 23 -70 18 -6 19 -18 19
-195 0 -180 -1 -189 -20 -195 -17 -6 -20 -15 -20 -76 l0 -71 228 4 c224 3 228
4 278 30 56 30 109 84 130 134 38 91 36 280 -3 359 -27 53 -85 104 -143 126
-48 19 -81 22 -265 25 -115 2 -214 2 -220 -1z m369 -151 c14 -5 16 -31 16
-184 0 -197 3 -190 -68 -190 l-37 0 2 187 c2 104 3 189 3 191 0 5 69 2 84 -4z"/>
<path d="M3275 2268 c-27 -5 -88 -20 -135 -35 -47 -14 -109 -32 -139 -39 -165
-44 -418 -206 -539 -347 -16 -17 -32 -27 -46 -25 -18 3 -22 -3 -27 -47 -7 -69
-69 -216 -226 -545 -36 -74 -69 -145 -74 -157 -10 -27 -16 -28 -60 -9 -51 22
-66 46 -68 107 -2 86 -43 240 -75 282 -16 20 -34 37 -41 37 -25 0 -76 -79
-146 -225 l-71 -146 -20 26 c-11 14 -34 49 -51 78 -68 110 -138 207 -151 207
-26 0 -40 -129 -27 -244 6 -55 16 -105 21 -110 14 -14 12 -26 -3 -26 -7 0 -37
28 -65 62 -29 35 -97 113 -152 173 -54 61 -102 122 -105 138 -4 15 -10 27 -14
27 -11 0 -43 -79 -36 -90 3 -5 -36 -29 -87 -52 -313 -144 -547 -274 -686 -380
-106 -82 -183 -207 -208 -335 -17 -88 -18 -163 -3 -163 5 0 40 16 78 35 117
61 244 69 339 23 26 -12 62 -44 90 -78 26 -32 52 -60 57 -63 6 -2 45 13 88 34
102 50 214 73 324 66 84 -5 121 -20 195 -79 26 -20 28 -20 50 -4 13 9 38 27
56 41 60 43 184 58 263 30 65 -23 198 -93 242 -127 30 -24 37 -36 37 -63 0
-34 11 -47 42 -52 23 -4 28 17 17 67 -16 73 5 70 54 -6 51 -81 98 -115 182
-133 33 -7 99 -26 148 -42 48 -17 91 -28 96 -25 4 3 18 34 30 68 12 35 39 106
59 158 36 94 40 129 29 239 -2 24 0 25 46 22 40 -2 47 0 47 16 0 10 -14 30
-32 45 l-33 28 32 25 c18 14 44 49 58 78 15 29 41 67 58 85 54 57 178 110 300
127 l47 7 0 83 c0 78 2 87 49 182 57 117 143 221 275 334 l84 71 17 77 c43
196 107 284 264 365 50 26 91 53 91 61 0 20 -175 127 -234 142 -57 15 -235 16
-311 1z m-1867 -1253 c-3 -3 -9 2 -12 12 -6 14 -5 15 5 6 7 -7 10 -15 7 -18z
m462 -50 c0 -8 -14 -30 -31 -50 -31 -35 -64 -46 -72 -22 -8 25 6 44 46 65 51
25 57 26 57 7z m-331 -49 c37 -19 55 -42 47 -61 -11 -29 -106 33 -106 69 0 11
31 6 59 -8z"/>
<path d="M3780 1681 l0 -160 48 -3 47 -3 0 -435 0 -435 -48 -3 -48 -3 3 -157
3 -156 515 3 c542 3 582 5 702 51 76 28 159 104 195 178 26 52 28 67 28 167 0
95 -3 116 -23 157 -42 85 -135 146 -264 172 -34 7 -63 17 -65 23 -2 6 13 17
34 23 124 40 226 127 261 223 29 77 30 186 1 262 -27 72 -101 153 -172 188
-123 60 -126 60 -694 65 l-523 4 0 -161z m797 -171 c45 -16 63 -56 63 -144 0
-91 -18 -142 -55 -156 -15 -6 -55 -10 -91 -10 l-64 0 0 160 0 160 59 0 c32 0
71 -5 88 -10z m36 -555 l37 -26 0 -112 c-1 -104 -3 -114 -25 -142 -23 -28 -29
-30 -110 -34 l-85 -3 0 171 0 171 73 0 c61 0 78 -4 110 -25z"/>
<path d="M5676 1828 c-2 -7 -27 -101 -56 -208 -29 -107 -61 -224 -71 -260 -10
-36 -52 -189 -94 -340 -120 -432 -102 -383 -140 -376 l-33 7 -7 -83 c-3 -46
-5 -119 -3 -163 l3 -80 43 0 c23 1 173 2 332 3 l290 2 0 155 0 155 -55 0 c-54
0 -55 1 -54 28 0 15 6 50 13 77 l11 50 132 3 c131 3 133 2 137 -20 2 -13 9
-45 14 -73 6 -27 8 -53 6 -57 -3 -5 -30 -8 -60 -8 l-54 0 0 -155 0 -155 385 0
385 0 0 154 0 155 -41 3 -42 3 -39 145 c-21 80 -54 201 -73 270 -64 233 -174
635 -192 705 l-18 70 -358 3 c-281 2 -358 0 -361 -10z m350 -563 c12 -66 29
-150 37 -187 8 -37 12 -70 9 -73 -9 -8 -172 -6 -172 3 0 4 9 48 19 97 10 50
27 134 36 188 14 78 20 97 33 95 11 -2 21 -34 38 -123z"/>
<path d="M6617 1833 c-4 -3 -7 -109 -7 -234 l0 -229 23 -5 c12 -3 87 -4 167
-3 l145 3 5 75 5 75 58 3 57 3 0 -441 0 -440 -65 0 -65 0 0 -155 0 -155 393
-2 c217 -2 401 -2 410 0 15 3 17 22 17 158 l0 154 -70 0 -70 0 0 440 0 440 60
0 60 0 0 -75 0 -75 168 0 167 0 0 233 0 232 -726 3 c-399 1 -729 -1 -732 -5z"/>
</g>
</svg>
